<svg xmlns="http://www.w3.org/2000/svg" viewBox="0 0 1600 900" role="img" aria-labelledby="title desc">
  <title id="title">Two people with independent paths and a shared boundary</title>
  <desc id="desc">A calm editorial illustration representing connection, autonomy, healthy boundaries, and outside support in relationships.</desc>
  <defs>
    <linearGradient id="bg" x1="0" y1="0" x2="1" y2="1"><stop offset="0" stop-color="#e7eff1"/><stop offset="0.5" stop-color="#fcfbf8"/><stop offset="1" stop-color="#bed5d7"/></linearGradient>
    <linearGradient id="left" x1="0" y1="0" x2="1" y2="1"><stop offset="0" stop-color="#6e9ca0"/><stop offset="1" stop-color="#315f68"/></linearGradient>
    <linearGradient id="right" x1="0" y1="0" x2="1" y2="1"><stop offset="0" stop-color="#d5c7ba"/><stop offset="1" stop-color="#927f77"/></linearGradient>
    <filter id="soft"><feGaussianBlur stdDeviation="20"/></filter>
    <filter id="shadow"><feDropShadow dx="0" dy="18" stdDeviation="16" flood-color="#29434b" flood-opacity="0.18"/></filter>
  </defs>
  <rect width="1600" height="900" fill="url(#bg)"/>
  <circle cx="1340" cy="150" r="235" fill="#fff" opacity="0.42" filter="url(#soft)"/>
  <circle cx="160" cy="760" r="260" fill="#86b7b9" opacity="0.18" filter="url(#soft)"/>
  <path d="M800 90V810" stroke="#557e84" stroke-width="8" opacity="0.22"/>
  <path d="M824 90V810" stroke="#ffffff" stroke-width="6" opacity="0.55"/>
  <g filter="url(#shadow)">
    <circle cx="500" cy="350" r="84" fill="#d19a80"/>
    <path d="M417 352 C420 258 474 204 548 218 C610 231 636 290 615 350 C575 311 508 299 447 328Z" fill="#29363b"/>
    <path d="M372 505 C426 432 536 425 613 506 L690 805H288Z" fill="url(#left)"/>
    <path d="M424 520 C480 481 539 476 592 511 L628 702H385Z" fill="#e8e4da" opacity="0.55"/>
    <circle cx="1040" cy="350" r="84" fill="#d19a80"/>
    <path d="M955 350 C960 255 1016 208 1087 225 C1142 238 1174 298 1151 352 C1110 314 1044 299 987 328Z" fill="#55474a"/>
    <path d="M910 505 C964 432 1076 425 1150 506 L1222 805H826Z" fill="url(#right)"/>
    <path d="M960 522 C1016 480 1072 478 1128 514 L1160 701H916Z" fill="#f0eee5" opacity="0.58"/>
  </g>
  <path d="M650 565 C720 508 755 508 800 565" fill="none" stroke="#ffffff" stroke-width="36" opacity="0.66"/>
  <path d="M800 565 C845 508 880 508 950 565" fill="none" stroke="#ffffff" stroke-width="36" opacity="0.66"/>
  <circle cx="800" cy="565" r="27" fill="#faffff" stroke="#4d8087" stroke-width="8"/>
  <path d="M765 565H835" stroke="#4d8087" stroke-width="6" stroke-linecap="round"/>
  <path d="M800 530V600" stroke="#4d8087" stroke-width="6" stroke-linecap="round"/>
  <g fill="#f9ffff" stroke="#56868b" stroke-width="7">
    <circle cx="190" cy="190" r="18"/><circle cx="270" cy="125" r="18"/><circle cx="1370" cy="690" r="18"/><circle cx="1450" cy="625" r="18"/>
  </g>
  <path d="M190 190L270 125M1370 690L1450 625" stroke="#56868b" stroke-width="7" opacity="0.66"/>
</svg>
