<svg xmlns="http://www.w3.org/2000/svg" viewBox="0 0 1600 900" role="img" aria-labelledby="title desc">
  <title id="title">Affection with room for boundaries</title>
  <desc id="desc">An editorial illustration of two warm light paths meeting without merging, representing affection, autonomy, and healthy boundaries.</desc>
  <defs>
    <linearGradient id="bg" x1="0" y1="0" x2="1" y2="1"><stop offset="0" stop-color="#e6eff0"/><stop offset="0.5" stop-color="#fffaf8"/><stop offset="1" stop-color="#c4d9d9"/></linearGradient>
    <linearGradient id="rose" x1="0" y1="0" x2="1" y2="1"><stop offset="0" stop-color="#e5a4a3"/><stop offset="1" stop-color="#a24f5e"/></linearGradient>
    <linearGradient id="teal" x1="0" y1="0" x2="1" y2="1"><stop offset="0" stop-color="#9ccbc5"/><stop offset="1" stop-color="#3c777a"/></linearGradient>
    <filter id="soft"><feGaussianBlur stdDeviation="22"/></filter>
    <filter id="shadow"><feDropShadow dx="0" dy="18" stdDeviation="16" flood-color="#3f3340" flood-opacity="0.18"/></filter>
  </defs>
  <rect width="1600" height="900" fill="url(#bg)"/>
  <circle cx="1320" cy="160" r="235" fill="#fff" opacity="0.44" filter="url(#soft)"/>
  <circle cx="185" cy="770" r="250" fill="#86b6b7" opacity="0.17" filter="url(#soft)"/>
  <path d="M800 880 C650 760 545 665 460 520 C400 418 360 315 305 185" fill="none" stroke="url(#rose)" stroke-width="112" opacity="0.74"/>
  <path d="M800 880 C950 760 1055 665 1140 520 C1200 418 1240 315 1295 185" fill="none" stroke="url(#teal)" stroke-width="112" opacity="0.78"/>
  <path d="M800 880 C650 760 545 665 460 520 C400 418 360 315 305 185" fill="none" stroke="#fff" stroke-width="6" stroke-dasharray="15 22" opacity="0.54"/>
  <path d="M800 880 C950 760 1055 665 1140 520 C1200 418 1240 315 1295 185" fill="none" stroke="#faffff" stroke-width="6" opacity="0.56"/>
  <g filter="url(#shadow)">
    <circle cx="540" cy="410" r="82" fill="#d19a80"/>
    <path d="M457 412 C460 319 515 268 590 281 C650 292 679 348 661 415 C619 376 554 365 494 394Z" fill="#40313b"/>
    <path d="M482 563 C522 494 585 484 636 514 C676 538 690 581 705 702H378Z" fill="url(#rose)"/>
    <circle cx="1060" cy="410" r="82" fill="#d19a80"/>
    <path d="M978 412 C980 319 1035 268 1110 281 C1170 292 1199 348 1181 415 C1139 376 1074 365 1014 394Z" fill="#2f3c40"/>
    <path d="M1002 563 C1042 494 1105 484 1156 514 C1196 538 1210 581 1225 702H898Z" fill="url(#teal)"/>
  </g>
  <path d="M714 505 C760 470 840 470 886 505" fill="none" stroke="#ffffff" stroke-width="34" opacity="0.72"/>
  <circle cx="800" cy="505" r="26" fill="#fff" stroke="#4c8288" stroke-width="8"/>
  <path d="M768 505H832" stroke="#4c8288" stroke-width="6" stroke-linecap="round"/>
  <path d="M800 473V537" stroke="#4c8288" stroke-width="6" stroke-linecap="round"/>
  <g fill="#fff" stroke="#54858a" stroke-width="7">
    <circle cx="192" cy="170" r="18"/><circle cx="1408" cy="170" r="18"/><circle cx="800" cy="112" r="18"/>
  </g>
  <path d="M192 170L800 112L1408 170" fill="none" stroke="#54858a" stroke-width="7" opacity="0.54"/>
</svg>
